<svg width="1247" height="219" viewBox="0 0 1247 219" fill="none" xmlns="http://www.w3.org/2000/svg">
<mask id="mask0_815_925" style="mask-type:alpha" maskUnits="userSpaceOnUse" x="27" y="79" width="187" height="130">
<path d="M27.2246 79.3165H213.446V193.584C213.446 198.682 213.446 201.23 212.454 203.177C211.582 204.89 210.189 206.283 208.477 207.155C206.529 208.147 203.981 208.147 198.883 208.147H40.6678C35.9623 208.147 33.6095 208.147 31.8122 207.232C30.2312 206.426 28.9459 205.141 28.1404 203.56C27.2246 201.762 27.2246 199.41 27.2246 194.704V79.3165Z" fill="#262626"/>
</mask>
<g mask="url(#mask0_815_925)">
<rect x="27.2246" y="72.126" width="43.4051" height="142.613" fill="#DCDCDC"/>
<rect x="67.8301" y="72.126" width="43.4051" height="142.613" fill="#F2F2F2"/>
<rect x="108.436" y="72.126" width="43.4051" height="142.613" fill="white"/>
<rect x="149.039" y="72.126" width="43.4051" height="142.613" fill="white"/>
<rect x="189.644" y="72.126" width="43.4051" height="142.613" fill="white"/>
</g>
<mask id="mask1_815_925" style="mask-type:alpha" maskUnits="userSpaceOnUse" x="25" y="147" width="199" height="33">
<rect x="25.1006" y="147.695" width="198.147" height="32.2077" fill="#262626"/>
</mask>
<g mask="url(#mask1_815_925)">
<path d="M120.473 109.886L161.159 189.982H144.463L120.473 109.886Z" fill="#333333"/>
<path d="M120.858 109.886L128.655 189.982H111.959L120.858 109.886Z" fill="#333333"/>
<path d="M120.859 109.886L120.954 110.018L195.925 188.434H177.739L120.859 109.886Z" fill="#333333"/>
<path d="M120.472 109.886L62.1027 189.982H45.4062L120.472 109.886Z" fill="#333333"/>
<path d="M120.859 109.886L96.1534 189.982H79.457L120.859 109.886Z" fill="#333333"/>
</g>
<mask id="mask2_815_925" style="mask-type:alpha" maskUnits="userSpaceOnUse" x="20" y="11" width="194" height="65">
<path d="M20.8377 51.9551C20.1332 47.3026 19.781 44.9763 20.4174 43.0622C20.9772 41.3785 22.0556 39.9152 23.4982 38.8821C25.1381 37.7076 27.4644 37.3553 32.1169 36.6509L194.845 12.0125C199.498 11.3081 201.824 10.9558 203.738 11.5922C205.422 12.152 206.885 13.2305 207.918 14.673C209.093 16.3129 209.445 18.6392 210.149 23.2917L213.745 47.0393L24.4332 75.7026L20.8377 51.9551Z" fill="#030C25"/>
</mask>
<g mask="url(#mask2_815_925)">
<rect x="13.8174" y="38.0186" width="196.325" height="47.1736" transform="rotate(-8.60967 13.8174 38.0186)" fill="white"/>
<path d="M94.8593 14.8726L43.3036 84.8257M185.857 -2.76428L129.98 73.0531" stroke="white" stroke-width="27.3065"/>
<path d="M94.8593 14.8726L43.3036 84.8257M185.857 -2.76428L129.98 73.0531" stroke="white" stroke-width="27.3065"/>
<path d="M94.8593 14.8726L43.3036 84.8257M185.857 -2.76428L129.98 73.0531" stroke="white" stroke-width="27.3065"/>
<path d="M94.8593 14.8726L43.3036 84.8257M185.857 -2.76428L129.98 73.0531" stroke="white" stroke-width="27.3065"/>
<path d="M94.8593 14.8726L43.3036 84.8257M185.857 -2.76428L129.98 73.0531" stroke="#333333" stroke-width="27.3065"/>
</g>
<circle cx="32.1038" cy="76.078" r="16.1038" fill="#343434"/>
<path d="M294.67 93.7011C286.709 93.7011 280.583 90.0694 278.089 83.9798C277.465 82.4391 277.172 81.1185 277.172 79.5044C277.172 76.3129 279.189 74.2953 282.307 74.2953C285.095 74.2953 286.709 75.6159 287.59 78.624C288.58 82.1823 291.038 84.1633 294.56 84.1633C299.182 84.1633 301.676 81.3019 301.676 75.9827V44.9481C301.676 41.2797 303.731 39.152 307.216 39.152C310.701 39.152 312.755 41.2797 312.755 44.9481V76.0561C312.755 87.3181 306.005 93.7011 294.67 93.7011ZM337.665 93.6644C325.376 93.6644 318.149 86.0708 318.149 73.3415C318.149 60.6855 325.523 52.6517 337.151 52.6517C348.303 52.6517 355.787 60.282 355.787 70.957C355.787 73.9284 354.099 75.6159 351.128 75.6159H328.677V76.0928C328.677 81.9255 332.199 85.7407 337.628 85.7407C341.553 85.7407 344.121 84.42 347.019 81.0084C348.157 79.8346 349.11 79.431 350.504 79.431C352.815 79.431 354.686 80.8984 354.686 83.3562C354.686 84.1999 354.43 85.0804 353.953 85.9608C351.348 90.8031 345.259 93.6644 337.665 93.6644ZM328.787 69.0495H345.479C345.259 63.9137 341.957 60.5755 337.261 60.5755C332.566 60.5755 329.154 64.0238 328.787 69.0495ZM373.8 93.5544C365.289 93.5544 359.64 88.0151 359.64 78.8441V58.3011C359.64 54.6327 361.878 52.6884 364.996 52.6884C368.151 52.6884 370.352 54.6327 370.352 58.3011V76.6064C370.352 81.8522 372.956 84.6402 377.689 84.6402C382.458 84.6402 385.429 81.2285 385.429 76.0194V58.3011C385.429 54.6327 387.667 52.6884 390.785 52.6884C393.94 52.6884 396.141 54.6327 396.141 58.3011V88.1618C396.141 91.7202 394.05 93.591 390.968 93.591C387.887 93.591 385.796 91.7202 385.796 88.1618V85.7407H385.576C383.631 90.693 379.743 93.5544 373.8 93.5544ZM406.964 93.591C403.846 93.591 401.608 91.6835 401.608 88.0151V58.081C401.608 54.7427 403.552 52.6884 406.78 52.6884C410.009 52.6884 412.136 54.7427 412.136 58.1176V60.3187H412.356C414.447 55.4397 418.409 52.7618 424.462 52.7618C433.193 52.7618 438.109 58.2644 438.109 67.4721V88.0151C438.109 91.6835 435.871 93.591 432.753 93.591C429.598 93.591 427.397 91.6835 427.397 88.0151V69.7098C427.397 64.574 424.976 61.6393 420.17 61.6393C415.365 61.6393 412.32 65.161 412.32 70.26V88.0151C412.32 91.6835 410.119 93.591 406.964 93.591ZM461.478 93.6644C449.189 93.6644 441.962 86.0708 441.962 73.3415C441.962 60.6855 449.335 52.6517 460.964 52.6517C472.116 52.6517 479.6 60.282 479.6 70.957C479.6 73.9284 477.912 75.6159 474.941 75.6159H452.49V76.0928C452.49 81.9255 456.012 85.7407 461.441 85.7407C465.366 85.7407 467.934 84.42 470.832 81.0084C471.969 79.8346 472.923 79.431 474.317 79.431C476.628 79.431 478.499 80.8984 478.499 83.3562C478.499 84.1999 478.242 85.0804 477.765 85.9608C475.161 90.8031 469.071 93.6644 461.478 93.6644ZM452.6 69.0495H469.291C469.071 63.9137 465.77 60.5755 461.074 60.5755C456.379 60.5755 452.967 64.0238 452.6 69.0495ZM521.532 93.7011C505.832 93.7011 496.294 83.4296 496.294 66.3349C496.294 49.2768 506.015 38.9686 521.239 38.9686C531.144 38.9686 538.81 43.3707 542.442 51.0009C543.176 52.3949 543.543 53.8256 543.543 55.1462C543.543 58.0443 541.598 59.9152 538.664 59.9152C536.169 59.9152 534.592 58.8146 533.381 56.2468C530.96 50.8542 526.631 48.1396 521.349 48.1396C512.985 48.1396 507.592 55.1462 507.592 66.2982C507.592 77.5968 512.912 84.5668 521.386 84.5668C526.962 84.5668 531.144 82.0356 533.528 76.7164C534.665 74.2219 536.059 73.2314 538.407 73.2314C541.525 73.2314 543.579 75.2124 543.579 78.1471C543.579 79.3943 543.286 80.5682 542.736 81.8522C539.434 89.189 531.547 93.7011 521.532 93.7011ZM554.623 48.6165C551.395 48.6165 548.9 46.1587 548.9 43.0772C548.9 39.9591 551.395 37.5379 554.623 37.5379C557.851 37.5379 560.345 39.9591 560.345 43.0772C560.345 46.1587 557.851 48.6165 554.623 48.6165ZM554.623 93.591C551.284 93.591 549.267 91.5001 549.267 88.0151V58.3011C549.267 54.8161 551.284 52.6884 554.623 52.6884C557.924 52.6884 559.979 54.8161 559.979 58.3011V88.0151C559.979 91.5001 557.924 93.591 554.623 93.591ZM570.985 93.591C567.867 93.591 565.629 91.6835 565.629 88.0151V58.081C565.629 54.7427 567.574 52.6884 570.802 52.6884C574.03 52.6884 576.158 54.7427 576.158 58.1176V60.3187H576.378C578.469 55.4397 582.431 52.7618 588.484 52.7618C597.214 52.7618 602.13 58.2644 602.13 67.4721V88.0151C602.13 91.6835 599.892 93.591 596.774 93.591C593.619 93.591 591.418 91.6835 591.418 88.0151V69.7098C591.418 64.574 588.997 61.6393 584.191 61.6393C579.386 61.6393 576.341 65.161 576.341 70.26V88.0151C576.341 91.6835 574.14 93.591 570.985 93.591ZM626.306 49.2034C624.252 49.2034 622.784 47.9195 622.784 46.1587C622.784 45.2416 622.968 44.6546 623.518 43.8476L627.884 37.6847C629.241 35.7404 630.121 35.1902 631.772 35.1902C634.046 35.1902 635.587 36.5841 635.587 38.6751C635.587 39.6289 635.22 40.5093 634.487 41.4631L629.608 47.4059C628.434 48.7999 627.737 49.2034 626.306 49.2034ZM625.499 93.6644C613.21 93.6644 605.983 86.0708 605.983 73.3415C605.983 60.6855 613.357 52.6517 624.986 52.6517C636.137 52.6517 643.621 60.282 643.621 70.957C643.621 73.9284 641.934 75.6159 638.962 75.6159H616.512V76.0928C616.512 81.9255 620.033 85.7407 625.462 85.7407C629.388 85.7407 631.955 84.42 634.854 81.0084C635.991 79.8346 636.945 79.431 638.338 79.431C640.65 79.431 642.52 80.8984 642.52 83.3562C642.52 84.1999 642.264 85.0804 641.787 85.9608C639.182 90.8031 633.093 93.6644 625.499 93.6644ZM616.622 69.0495H633.313C633.093 63.9137 629.791 60.5755 625.096 60.5755C620.4 60.5755 616.988 64.0238 616.622 69.0495Z" fill="#333333"/>
<path d="M292.61 174.546C284.802 174.546 279.797 171.428 278.277 167.288C278.015 166.607 277.858 165.873 277.858 165.165C277.858 163.069 279.299 161.681 281.343 161.681C282.968 161.681 284.042 162.309 284.985 163.986C286.217 166.869 289.178 168.179 292.794 168.179C297.039 168.179 299.921 166.135 299.921 163.357C299.921 160.868 298.139 159.453 293.396 158.484L289.387 157.698C281.841 156.204 278.146 152.588 278.146 146.955C278.146 140.037 284.173 135.451 292.584 135.451C299.502 135.451 304.716 138.36 306.393 143.286C306.576 143.81 306.681 144.36 306.681 145.042C306.681 146.928 305.319 148.212 303.301 148.212C301.519 148.212 300.419 147.505 299.528 145.88C298.27 143.024 295.833 141.845 292.584 141.845C288.68 141.845 286.086 143.679 286.086 146.457C286.086 148.789 287.894 150.23 292.374 151.121L296.357 151.933C304.375 153.531 307.834 156.754 307.834 162.493C307.834 169.882 302.043 174.546 292.61 174.546ZM312.997 166.738V151.592H311.53C309.722 151.592 308.569 150.492 308.569 148.71C308.569 146.928 309.722 145.828 311.53 145.828H312.997V142.71C312.997 140.247 314.438 138.727 316.823 138.727C319.207 138.727 320.648 140.247 320.648 142.71V145.828H323.347C325.155 145.828 326.282 146.955 326.282 148.71C326.282 150.466 325.155 151.592 323.347 151.592H320.648V165.034C320.648 167.026 321.33 167.864 322.98 167.995L323.478 168.048C325.365 168.257 326.387 169.044 326.387 170.825C326.387 173.079 324.186 174.232 320.963 174.232H320.701C315.591 174.232 312.997 171.69 312.997 166.738ZM338.939 174.441C332.86 174.441 328.825 170.485 328.825 163.934V149.26C328.825 146.64 330.423 145.251 332.65 145.251C334.904 145.251 336.476 146.64 336.476 149.26V162.336C336.476 166.083 338.336 168.074 341.717 168.074C345.123 168.074 347.245 165.637 347.245 161.916V149.26C347.245 146.64 348.844 145.251 351.071 145.251C353.324 145.251 354.897 146.64 354.897 149.26V170.589C354.897 173.131 353.403 174.467 351.202 174.467C349.001 174.467 347.507 173.131 347.507 170.589V168.86H347.35C345.961 172.397 343.184 174.441 338.939 174.441ZM369.231 174.363C362.208 174.363 357.78 168.808 357.78 159.82C357.78 150.911 362.234 145.382 369.283 145.382C373.344 145.382 376.489 147.531 377.851 150.649H378.008V139.539C378.008 136.919 379.607 135.53 381.834 135.53C384.088 135.53 385.66 136.919 385.66 139.539V170.589C385.66 173.131 384.088 174.467 381.86 174.467C379.659 174.467 378.008 173.157 378.008 170.589V168.965H377.877C376.646 172.109 373.554 174.363 369.231 174.363ZM371.825 168.205C375.624 168.205 378.061 165.008 378.061 159.873C378.061 154.763 375.624 151.514 371.825 151.514C367.973 151.514 365.615 154.737 365.615 159.873C365.615 165.034 367.973 168.205 371.825 168.205ZM393.653 142.343C391.347 142.343 389.565 140.587 389.565 138.386C389.565 136.159 391.347 134.43 393.653 134.43C395.958 134.43 397.74 136.159 397.74 138.386C397.74 140.587 395.958 142.343 393.653 142.343ZM393.653 174.467C391.268 174.467 389.827 172.974 389.827 170.485V149.26C389.827 146.771 391.268 145.251 393.653 145.251C396.011 145.251 397.478 146.771 397.478 149.26V170.485C397.478 172.974 396.011 174.467 393.653 174.467ZM414.406 174.52C405.917 174.52 400.493 169.07 400.493 159.846C400.493 150.754 405.995 145.225 414.406 145.225C422.817 145.225 428.32 150.728 428.32 159.846C428.32 169.096 422.896 174.52 414.406 174.52ZM414.406 168.677C418.153 168.677 420.538 165.506 420.538 159.873C420.538 154.291 418.127 151.068 414.406 151.068C410.686 151.068 408.249 154.291 408.249 159.873C408.249 165.506 410.633 168.677 414.406 168.677ZM451.197 174.363C444.175 174.363 439.747 168.808 439.747 159.82C439.747 150.911 444.201 145.382 451.25 145.382C455.311 145.382 458.455 147.531 459.818 150.649H459.975V139.539C459.975 136.919 461.574 135.53 463.801 135.53C466.054 135.53 467.626 136.919 467.626 139.539V170.589C467.626 173.131 466.054 174.467 463.827 174.467C461.626 174.467 459.975 173.157 459.975 170.589V168.965H459.844C458.613 172.109 455.521 174.363 451.197 174.363ZM453.791 168.205C457.591 168.205 460.028 165.008 460.028 159.873C460.028 154.763 457.591 151.514 453.791 151.514C449.939 151.514 447.581 154.737 447.581 159.873C447.581 165.034 449.939 168.205 453.791 168.205ZM484.581 174.52C475.803 174.52 470.641 169.096 470.641 160.004C470.641 150.964 475.908 145.225 484.214 145.225C492.179 145.225 497.525 150.675 497.525 158.3C497.525 160.423 496.32 161.628 494.197 161.628H478.161V161.969C478.161 166.135 480.676 168.86 484.554 168.86C487.358 168.86 489.192 167.917 491.262 165.48C492.075 164.641 492.756 164.353 493.752 164.353C495.402 164.353 496.739 165.401 496.739 167.157C496.739 167.76 496.555 168.388 496.215 169.017C494.354 172.476 490.005 174.52 484.581 174.52ZM478.24 156.938H490.162C490.005 153.269 487.646 150.885 484.292 150.885C480.938 150.885 478.502 153.348 478.24 156.938ZM514.585 174.415C512.096 174.415 510.628 172.895 510.628 170.301V140.22C510.628 137.626 512.096 136.107 514.585 136.107H526.009C533.765 136.107 539.111 141.269 539.111 149.051C539.111 156.807 533.582 161.995 525.616 161.995H518.542V170.301C518.542 172.895 517.074 174.415 514.585 174.415ZM518.542 155.811H523.887C528.42 155.811 531.067 153.4 531.067 149.077C531.067 144.78 528.446 142.369 523.913 142.369H518.542V155.811ZM545.898 174.467C543.593 174.467 542.073 173.026 542.073 170.485V149.103C542.073 146.666 543.566 145.251 545.767 145.251C547.916 145.251 549.383 146.666 549.383 149.103V150.937H549.541C550.274 147.452 552.58 145.382 555.384 145.382C556.406 145.382 557.218 145.618 557.768 146.09C558.502 146.666 558.869 147.61 558.869 148.92C558.869 150.125 558.502 151.042 557.768 151.671C557.035 152.3 555.934 152.641 554.441 152.667C550.956 152.719 549.724 154.684 549.724 158.012V170.485C549.724 173.026 548.23 174.467 545.898 174.467ZM572.495 174.52C564.006 174.52 558.582 169.07 558.582 159.846C558.582 150.754 564.084 145.225 572.495 145.225C580.906 145.225 586.409 150.728 586.409 159.846C586.409 169.096 580.985 174.52 572.495 174.52ZM572.495 168.677C576.242 168.677 578.627 165.506 578.627 159.873C578.627 154.291 576.216 151.068 572.495 151.068C568.775 151.068 566.338 154.291 566.338 159.873C566.338 165.506 568.722 168.677 572.495 168.677ZM599.721 174.363C592.699 174.363 588.271 168.808 588.271 159.82C588.271 150.911 592.725 145.382 599.774 145.382C603.835 145.382 606.979 147.531 608.342 150.649H608.499V139.539C608.499 136.919 610.097 135.53 612.325 135.53C614.578 135.53 616.15 136.919 616.15 139.539V170.589C616.15 173.131 614.578 174.467 612.351 174.467C610.15 174.467 608.499 173.157 608.499 170.589V168.965H608.368C607.137 172.109 604.045 174.363 599.721 174.363ZM602.315 168.205C606.115 168.205 608.552 165.008 608.552 159.873C608.552 154.763 606.115 151.514 602.315 151.514C598.463 151.514 596.105 154.737 596.105 159.873C596.105 165.034 598.463 168.205 602.315 168.205ZM630.17 174.441C624.091 174.441 620.056 170.485 620.056 163.934V149.26C620.056 146.64 621.654 145.251 623.881 145.251C626.135 145.251 627.707 146.64 627.707 149.26V162.336C627.707 166.083 629.567 168.074 632.947 168.074C636.354 168.074 638.476 165.637 638.476 161.916V149.26C638.476 146.64 640.075 145.251 642.302 145.251C644.555 145.251 646.127 146.64 646.127 149.26V170.589C646.127 173.131 644.634 174.467 642.433 174.467C640.232 174.467 638.738 173.131 638.738 170.589V168.86H638.581C637.192 172.397 634.415 174.441 630.17 174.441ZM662.846 174.52C654.382 174.52 649.011 168.965 649.011 159.873C649.011 150.885 654.356 145.225 662.794 145.225C668.427 145.225 673.117 147.95 674.637 151.933C674.899 152.588 675.056 153.269 675.056 153.82C675.056 155.706 673.589 156.807 671.781 156.807C670.261 156.807 669.344 156.204 668.558 154.815C667.169 152.352 665.466 151.226 663.029 151.226C659.151 151.226 656.767 154.422 656.767 159.846C656.767 165.375 659.151 168.519 662.977 168.519C665.65 168.519 667.3 167.209 668.48 165.218C669.501 163.62 670.34 162.964 671.965 162.964C673.746 162.964 675.187 164.144 675.187 166.03C675.187 166.633 675.03 167.262 674.69 168.022C673.013 171.847 668.217 174.52 662.846 174.52ZM680.246 166.738V151.592H678.778C676.97 151.592 675.817 150.492 675.817 148.71C675.817 146.928 676.97 145.828 678.778 145.828H680.246V142.71C680.246 140.247 681.687 138.727 684.071 138.727C686.456 138.727 687.897 140.247 687.897 142.71V145.828H690.596C692.404 145.828 693.53 146.955 693.53 148.71C693.53 150.466 692.404 151.592 690.596 151.592H687.897V165.034C687.897 167.026 688.578 167.864 690.229 167.995L690.727 168.048C692.613 168.257 693.635 169.044 693.635 170.825C693.635 173.079 691.434 174.232 688.211 174.232H687.949C682.84 174.232 680.246 171.69 680.246 166.738ZM700.161 142.343C697.855 142.343 696.073 140.587 696.073 138.386C696.073 136.159 697.855 134.43 700.161 134.43C702.467 134.43 704.248 136.159 704.248 138.386C704.248 140.587 702.467 142.343 700.161 142.343ZM700.161 174.467C697.776 174.467 696.335 172.974 696.335 170.485V149.26C696.335 146.771 697.776 145.251 700.161 145.251C702.519 145.251 703.986 146.771 703.986 149.26V170.485C703.986 172.974 702.519 174.467 700.161 174.467ZM720.915 174.52C712.425 174.52 707.001 169.07 707.001 159.846C707.001 150.754 712.503 145.225 720.915 145.225C729.326 145.225 734.828 150.728 734.828 159.846C734.828 169.096 729.404 174.52 720.915 174.52ZM720.915 168.677C724.662 168.677 727.046 165.506 727.046 159.873C727.046 154.291 724.635 151.068 720.915 151.068C717.194 151.068 714.757 154.291 714.757 159.873C714.757 165.506 717.141 168.677 720.915 168.677ZM741.537 174.467C739.31 174.467 737.712 173.105 737.712 170.485V149.103C737.712 146.719 739.1 145.251 741.406 145.251C743.712 145.251 745.232 146.719 745.232 149.129V150.702H745.389C746.883 147.217 749.712 145.304 754.036 145.304C760.272 145.304 763.783 149.234 763.783 155.811V170.485C763.783 173.105 762.185 174.467 759.958 174.467C757.704 174.467 756.132 173.105 756.132 170.485V157.409C756.132 153.741 754.403 151.645 750.97 151.645C747.538 151.645 745.363 154.16 745.363 157.802V170.485C745.363 173.105 743.791 174.467 741.537 174.467ZM781.734 174.415C779.245 174.415 777.778 172.895 777.778 170.301V140.22C777.778 137.626 779.245 136.107 781.734 136.107H799.421C801.596 136.107 803.011 137.338 803.011 139.382C803.011 141.426 801.57 142.657 799.421 142.657H785.691V152.772H798.137C800.181 152.772 801.518 153.951 801.518 155.89C801.518 157.855 800.207 159.034 798.137 159.034H785.691V170.301C785.691 172.895 784.224 174.415 781.734 174.415ZM809.327 174.467C807.021 174.467 805.501 173.026 805.501 170.485V149.103C805.501 146.666 806.995 145.251 809.196 145.251C811.345 145.251 812.812 146.666 812.812 149.103V150.937H812.969C813.703 147.452 816.009 145.382 818.813 145.382C819.834 145.382 820.647 145.618 821.197 146.09C821.931 146.666 822.297 147.61 822.297 148.92C822.297 150.125 821.931 151.042 821.197 151.671C820.463 152.3 819.363 152.641 817.869 152.667C814.384 152.719 813.153 154.684 813.153 158.012V170.485C813.153 173.026 811.659 174.467 809.327 174.467ZM827.932 142.343C825.626 142.343 823.845 140.587 823.845 138.386C823.845 136.159 825.626 134.43 827.932 134.43C830.238 134.43 832.02 136.159 832.02 138.386C832.02 140.587 830.238 142.343 827.932 142.343ZM827.932 174.467C825.548 174.467 824.107 172.974 824.107 170.485V149.26C824.107 146.771 825.548 145.251 827.932 145.251C830.29 145.251 831.758 146.771 831.758 149.26V170.485C831.758 172.974 830.29 174.467 827.932 174.467ZM839.725 174.467C837.523 174.467 835.977 173.157 835.977 170.589V139.539C835.977 136.919 837.576 135.53 839.803 135.53C842.057 135.53 843.629 136.919 843.629 139.539V150.702H843.786C845.332 147.374 848.476 145.382 852.459 145.382C859.56 145.382 863.884 150.806 863.884 159.873C863.884 168.912 859.586 174.363 852.485 174.363C848.371 174.363 845.253 172.371 843.681 169.096H843.524V170.589C843.524 173.131 841.952 174.467 839.725 174.467ZM849.865 168.205C853.664 168.205 856.049 165.008 856.049 159.873C856.049 154.763 853.664 151.514 849.865 151.514C846.144 151.514 843.603 154.842 843.603 159.873C843.603 164.956 846.144 168.205 849.865 168.205ZM879.685 174.52C871.195 174.52 865.771 169.07 865.771 159.846C865.771 150.754 871.274 145.225 879.685 145.225C888.096 145.225 893.599 150.728 893.599 159.846C893.599 169.096 888.175 174.52 879.685 174.52ZM879.685 168.677C883.432 168.677 885.816 165.506 885.816 159.873C885.816 154.291 883.406 151.068 879.685 151.068C875.964 151.068 873.527 154.291 873.527 159.873C873.527 165.506 875.912 168.677 879.685 168.677ZM906.465 174.441C900.386 174.441 896.351 170.485 896.351 163.934V149.26C896.351 146.64 897.949 145.251 900.177 145.251C902.43 145.251 904.002 146.64 904.002 149.26V162.336C904.002 166.083 905.863 168.074 909.243 168.074C912.649 168.074 914.772 165.637 914.772 161.916V149.26C914.772 146.64 916.37 145.251 918.597 145.251C920.851 145.251 922.423 146.64 922.423 149.26V170.589C922.423 173.131 920.929 174.467 918.728 174.467C916.527 174.467 915.034 173.131 915.034 170.589V168.86H914.876C913.488 172.397 910.71 174.441 906.465 174.441ZM930.154 174.467C927.848 174.467 926.328 173.026 926.328 170.485V149.103C926.328 146.666 927.822 145.251 930.023 145.251C932.171 145.251 933.639 146.666 933.639 149.103V150.937H933.796C934.53 147.452 936.835 145.382 939.639 145.382C940.661 145.382 941.473 145.618 942.024 146.09C942.757 146.666 943.124 147.61 943.124 148.92C943.124 150.125 942.757 151.042 942.024 151.671C941.29 152.3 940.189 152.641 938.696 152.667C935.211 152.719 933.979 154.684 933.979 158.012V170.485C933.979 173.026 932.486 174.467 930.154 174.467ZM956.41 184.477C950.672 184.451 946.4 182.276 944.592 179.315C944.173 178.608 944.016 177.9 944.016 177.193C944.016 175.594 945.221 174.389 947.134 174.389C948.13 174.389 948.916 174.703 949.781 175.489C951.851 177.455 953.842 178.529 956.384 178.555C960.576 178.581 963.039 176.275 963.039 172.764V168.284H962.882C961.572 171.297 958.297 173.315 954.235 173.315C947.239 173.315 942.837 167.969 942.837 159.401C942.837 150.597 947.134 145.382 954.366 145.382C958.401 145.382 961.467 147.505 962.934 150.675H963.092V149.129C963.092 146.535 964.742 145.251 966.943 145.251C969.145 145.251 970.743 146.535 970.743 149.129V172.817C970.743 180.127 965.45 184.529 956.41 184.477ZM956.829 167.629C960.655 167.629 963.118 164.589 963.118 159.506C963.118 154.449 960.655 151.199 956.829 151.199C953.056 151.199 950.672 154.396 950.672 159.479C950.672 164.615 953.03 167.629 956.829 167.629ZM987.566 174.52C978.788 174.52 973.626 169.096 973.626 160.004C973.626 150.964 978.893 145.225 987.199 145.225C995.165 145.225 1000.51 150.675 1000.51 158.3C1000.51 160.423 999.305 161.628 997.183 161.628H981.146V161.969C981.146 166.135 983.662 168.86 987.54 168.86C990.344 168.86 992.178 167.917 994.248 165.48C995.06 164.641 995.741 164.353 996.737 164.353C998.388 164.353 999.724 165.401 999.724 167.157C999.724 167.76 999.541 168.388 999.2 169.017C997.34 172.476 992.99 174.52 987.566 174.52ZM981.225 156.938H993.147C992.99 153.269 990.632 150.885 987.278 150.885C983.924 150.885 981.487 153.348 981.225 156.938ZM1016.29 174.52C1007.8 174.52 1002.37 169.07 1002.37 159.846C1002.37 150.754 1007.87 145.225 1016.29 145.225C1024.7 145.225 1030.2 150.728 1030.2 159.846C1030.2 169.096 1024.78 174.52 1016.29 174.52ZM1016.29 168.677C1020.03 168.677 1022.42 165.506 1022.42 159.873C1022.42 154.291 1020.01 151.068 1016.29 151.068C1012.56 151.068 1010.13 154.291 1010.13 159.873C1010.13 165.506 1012.51 168.677 1016.29 168.677ZM1037.04 142.343C1034.73 142.343 1032.95 140.587 1032.95 138.386C1032.95 136.159 1034.73 134.43 1037.04 134.43C1039.35 134.43 1041.13 136.159 1041.13 138.386C1041.13 140.587 1039.35 142.343 1037.04 142.343ZM1037.04 174.467C1034.65 174.467 1033.21 172.974 1033.21 170.485V149.26C1033.21 146.771 1034.65 145.251 1037.04 145.251C1039.4 145.251 1040.86 146.771 1040.86 149.26V170.485C1040.86 172.974 1039.4 174.467 1037.04 174.467ZM1056.35 174.52C1049.91 174.52 1045.61 172.214 1044.27 168.912C1044.09 168.415 1043.98 167.917 1043.98 167.498C1043.98 165.742 1045.29 164.563 1047.08 164.563C1048.31 164.563 1049.36 165.113 1050.4 166.292C1051.9 168.257 1053.63 169.148 1056.54 169.148C1059.31 169.148 1061.12 167.995 1061.12 166.135C1061.12 164.615 1060.15 163.803 1057.4 163.2L1052.68 162.205C1047.18 161.025 1044.4 158.222 1044.4 154.055C1044.4 148.684 1049.04 145.225 1056.33 145.225C1062.14 145.225 1066.41 147.872 1067.33 151.042C1067.44 151.435 1067.51 151.802 1067.51 152.169C1067.51 153.715 1066.54 154.789 1064.58 154.789C1063.58 154.789 1062.48 154.422 1061.8 153.61C1060.47 151.907 1058.95 150.597 1056.19 150.597C1053.6 150.597 1051.79 151.828 1051.79 153.636C1051.79 155.104 1052.89 156.073 1055.7 156.676L1060.33 157.671C1066.31 158.929 1068.77 161.13 1068.77 165.323C1068.77 170.904 1063.77 174.52 1056.35 174.52Z" fill="#818181"/>
</svg>
